<svg t="1643120886291" class="icon" viewBox="0 0 1024 1024" version="1.1" xmlns="http://www.w3.org/2000/svg" p-id="3004" width="200" height="200"><path d="M877.714286 0H265.142857A9.142857 9.142857 0 0 0 256 9.142857V73.142857c0 5.046857 4.096 9.142857 9.142857 9.142857h566.857143v786.285715c0 5.046857 4.096 9.142857 9.142857 9.142857h64a9.142857 9.142857 0 0 0 9.142857-9.142857V36.571429A36.571429 36.571429 0 0 0 877.714286 0zM731.428571 146.285714H146.285714a36.571429 36.571429 0 0 0-36.571428 36.571429v606.500571a36.571429 36.571429 0 0 0 10.752 25.819429l198.070857 198.070857a37.814857 37.814857 0 0 0 8.411428 6.290286v2.194285h4.827429c4.022857 1.462857 8.192 2.267429 12.580571 2.267429H731.428571a36.571429 36.571429 0 0 0 36.571429-36.571429v-804.571428A36.571429 36.571429 0 0 0 731.428571 146.285714zM326.875429 905.362286l-98.450286-98.523429H326.948571v98.523429z m358.838857 36.352H400.018286v-162.304a45.714286 45.714286 0 0 0-45.714286-45.714286H192V228.571429h493.714286v713.142857z" p-id="3005"></path></svg>