<svg t="1643120723513" class="icon" viewBox="0 0 1024 1024" version="1.1" xmlns="http://www.w3.org/2000/svg" p-id="1784" width="200" height="200"><path d="M955.733333 136.533333H68.266667c-37.546667 0-68.266667 30.72-68.266667 68.266667v614.4c0 37.546667 30.72 68.266667 68.266667 68.266667h887.466666c37.546667 0 68.266667-30.72 68.266667-68.266667V204.8c0-37.546667-30.72-68.266667-68.266667-68.266667zM322.798933 573.201067a34.133333 34.133333 0 1 1-48.264533 48.264533l-85.333333-85.333333a34.133333 34.133333 0 0 1 0-48.264534l85.333333-85.333333a34.133333 34.133333 0 1 1 48.264533 48.264533L261.614933 512l61.184 61.201067zM630.237867 375.466667L452.881067 682.666667a34.082133 34.082133 0 0 1-46.626134 12.4928A34.133333 34.133333 0 0 1 393.762133 648.533333l177.373867-307.2a34.133333 34.133333 0 1 1 59.101867 34.133334z m204.561066 160.6656l-85.333333 85.333333c-6.656 6.673067-15.394133 10.001067-24.132267 10.001067s-17.476267-3.328-24.132266-10.001067a34.133333 34.133333 0 0 1 0-48.264533L762.385067 512l-61.184-61.201067a34.133333 34.133333 0 1 1 48.264533-48.264533l85.333333 85.333333a34.133333 34.133333 0 0 1 0 48.264534z" fill="#040000" p-id="1785"></path></svg>